<svg xmlns="http://www.w3.org/2000/svg" width="913" height="453"><defs><style>@import url('https://fonts.googleapis.com/css2?family=Roboto+Mono&amp;display=swap')</style><style>text,text&gt;tspan{font-family:'Roboto Mono';font-size:16px} rect{stroke:black} line,path{fill:none;stroke:black}</style><marker id="arrowMarker" orient="auto" refX="6" refY="5" markerHeight="10" markerWidth="5"><path style="fill:black;stroke:black" d="M 0 0 L 5 5 L 0 10 Z"></path></marker><marker id="inheritMarker" orient="auto" refX="16" refY="7.5" markerHeight="15" markerWidth="15"><path style="fill:white;stroke:black" d="M 0 0 L 15 7.5 L 0 15 Z"></path></marker><marker id="aggregationMarker" orient="auto" refX="21" refY="7.5" markerHeight="15" markerWidth="20"><path style="fill:white;stroke:black" d="M 0 7.5 L 10 0 L 20 7.5 L 10 15 Z"></path></marker><marker id="compositionMarker" orient="auto" refX="21" refY="7.5" markerHeight="15" markerWidth="20"><path style="fill:black;stroke:black" d="M 0 7.5 L 10 0 L 20 7.5 L 10 15 Z"></path></marker></defs><g transform="translate(5,37)"><rect height="42" width="143" style="fill:white"></rect><rect height="21" width="143" style="fill:lightgrey"></rect><text x="5" y="16">ObjetConnecter</text><text><tspan x="2.5" y="37" style="text-decoration:underline">idObjet</tspan></text></g><g transform="translate(353,5)"><rect height="106" width="124" style="fill:white"></rect><rect height="21" width="124" style="fill:lightgrey"></rect><text x="28.75" y="16">Membres</text><text><tspan x="2.5" y="37" style="text-decoration:underline">idMembre</tspan><tspan x="2.5" y="53">nomMembre</tspan><tspan x="2.5" y="69">prenomMembre</tspan><tspan x="2.5" y="85">emailMembre</tspan><tspan x="2.5" y="101">phoneMembre</tspan></text><g transform="translate(42,106)"><line x1="19" x2="19" y1="0" y2="5"></line><path d="M 39 24 a1,1 0 1,0 -39 0 l 39 0" style="fill:lightgrey"></path><text x="19.5" y="22"></text></g></g><g transform="translate(711,29)"><rect height="58" width="152" style="fill:white"></rect><rect height="21" width="152.5" style="fill:lightgrey"></rect><text x="33.5" y="16">Domiciles</text><text><tspan x="2.5" y="37" style="text-decoration:underline">idDomicile</tspan><tspan x="2.5" y="53">addreseDomicile</tspan></text></g><g transform="translate(334,161)"><rect height="42" width="162" style="fill:white"></rect><rect height="21" width="162" style="fill:lightgrey"></rect><text x="9.75" y="16">Co_Proprietaire</text><text><tspan x="2.5" y="37">isCoProprietaire</tspan></text><g transform="translate(61,42)"><line x1="19" x2="19" y1="0" y2="5"></line><path d="M 39 24 a1,1 0 1,0 -39 0 l 39 0" style="fill:lightgrey"></path><text x="19.5" y="22"></text></g></g><g transform="translate(343,253)"><rect height="42" width="143" style="fill:white"></rect><rect height="21" width="143" style="fill:lightgrey"></rect><text x="14.5" y="16">Proprietaire</text><text><tspan x="2.5" y="37">isProprietaire</tspan></text></g><g transform="translate(565,345)"><rect height="58" width="76" style="fill:white"></rect><rect height="21" width="76.5" style="fill:lightgrey"></rect><text x="9.75" y="16">Pieces</text><text><tspan x="2.5" y="37" style="text-decoration:underline">idPiece</tspan><tspan x="2.5" y="53"></tspan></text></g><g transform="translate(198,37)"><rect height="42" width="86.5" rx="20" ry="20" style="fill:lightgrey"></rect><line x1="0" x2="86.5" y1="21" y2="21"></line><text x="10" y="17">ObjetDe</text><text></text></g><g transform="translate(560,37)"><rect height="42" width="86.5" rx="20" ry="20" style="fill:lightgrey"></rect><line x1="0" x2="86.5" y1="21" y2="21"></line><text x="10" y="17">Habiter</text><text></text></g><g transform="translate(19,161)"><rect height="42" width="115" style="fill:white"></rect><rect height="42" width="115" rx="20" ry="20" style="fill:lightgrey"></rect><line x1="0" x2="115" y1="21" y2="21"></line><text x="10" y="17">AjoutObjet</text><text></text></g><g transform="translate(546,161)"><rect height="42" width="115" rx="20" ry="20" style="fill:lightgrey"></rect><line x1="0" x2="115" y1="21" y2="21"></line><text x="10" y="17">CreePieces</text><text></text></g><g transform="translate(729,253)"><rect height="42" width="115" rx="20" ry="20" style="fill:lightgrey"></rect><line x1="0" x2="115" y1="21" y2="21"></line><text x="10" y="17">Appartient</text><text></text></g><g transform="translate(212,353)"><rect height="42" width="58" rx="20" ry="20" style="fill:lightgrey"></rect><line x1="0" x2="58" y1="21" y2="21"></line><text x="10" y="17">Dans</text><text></text></g><g><line x1="198" x2="148" y1="58" y2="58"></line><text x="153" y="79">1,N</text></g><g><line x1="284" x2="353" y1="58" y2="58"></line><text x="317" y="79">1,N</text></g><g><line x1="560" x2="477" y1="58" y2="58"></line><text x="482" y="79">1,N</text></g><g><line x1="646" x2="711" y1="58" y2="58"></line><text x="675" y="79">0,N</text></g><g><line x1="134" x2="334" y1="182" y2="182" marker-end="url(#arrowMarker)"></line><text x="298" y="203">1,1</text></g><g><line x1="76" x2="76" y1="161" y2="79"></line><text x="81" y="100">1,N</text></g><g><line x1="546" x2="496" y1="182" y2="182"></line><text x="501" y="203">0,N</text></g><g><line x1="634" x2="744" y1="161" y2="87"></line><text x="708" y="108">0,N</text></g><g><line x1="603" x2="603" y1="203" y2="345"></line><text x="608" y="338">1,N</text></g><g><line x1="729" x2="486" y1="274" y2="274"></line><text x="491" y="295">1,N</text></g><g><line x1="786" x2="787" y1="253" y2="87"></line><text x="792" y="108">0,N</text></g><g><line x1="223" x2="94" y1="353" y2="203"></line><text x="99" y="224">1,N</text></g><g><line x1="270" x2="565" y1="374" y2="374"></line><text x="529" y="395">1,N</text></g><g><line x1="415" x2="415" y1="135" y2="161"></line><text x="420" y="154"></text></g><g><line x1="415" x2="414" y1="227" y2="253"></line><text x="419" y="246"></text></g></svg>