<svg xmlns="http://www.w3.org/2000/svg" width="1103" height="749"><defs><style>@import url('https://fonts.googleapis.com/css2?family=Roboto+Mono&amp;display=swap')</style><style>text,text&gt;tspan{font-family:'Roboto Mono';font-size:16px} rect{stroke:black} line,path{fill:none;stroke:black}</style><marker id="arrowMarker" orient="auto" refX="6" refY="5" markerHeight="10" markerWidth="5"><path style="fill:black;stroke:black" d="M 0 0 L 5 5 L 0 10 Z"></path></marker><marker id="inheritMarker" orient="auto" refX="16" refY="7.5" markerHeight="15" markerWidth="15"><path style="fill:white;stroke:black" d="M 0 0 L 15 7.5 L 0 15 Z"></path></marker><marker id="aggregationMarker" orient="auto" refX="21" refY="7.5" markerHeight="15" markerWidth="20"><path style="fill:white;stroke:black" d="M 0 7.5 L 10 0 L 20 7.5 L 10 15 Z"></path></marker><marker id="compositionMarker" orient="auto" refX="21" refY="7.5" markerHeight="15" markerWidth="20"><path style="fill:black;stroke:black" d="M 0 7.5 L 10 0 L 20 7.5 L 10 15 Z"></path></marker></defs><g transform="translate(5,45)"><rect height="74" width="257" style="fill:white"></rect><rect height="21" width="257" style="fill:lightgrey"></rect><text x="62" y="16">ObjetConnecter</text><text><tspan x="2.5" y="37" style="text-decoration:underline">idObjet</tspan><tspan x="2.5" y="53">typeObjetConnecte</tspan><tspan x="2.5" y="69">Connecter nomObjetConnecte</tspan></text></g><g transform="translate(533,5)"><rect height="154" width="143" style="fill:white"></rect><rect height="21" width="143" style="fill:lightgrey"></rect><text x="38.25" y="16">Membres</text><text><tspan x="2.5" y="37" style="text-decoration:underline">idMembre</tspan><tspan x="2.5" y="53">nomMembre</tspan><tspan x="2.5" y="69">prenomMembre</tspan><tspan x="2.5" y="85">emailMembre</tspan><tspan x="2.5" y="101">phoneMembre</tspan><tspan x="2.5" y="117">passwordMembre</tspan><tspan x="2.5" y="133">birthdayMembre</tspan><tspan x="2.5" y="149">sexeMembre</tspan></text><g transform="translate(52,154)"><line x1="19" x2="19" y1="0" y2="5"></line><path d="M 39 24 a1,1 0 1,0 -39 0 l 39 0" style="fill:lightgrey"></path><text x="14.75" y="22">T</text></g></g><g transform="translate(901,53)"><rect height="58" width="152" style="fill:white"></rect><rect height="21" width="152.5" style="fill:lightgrey"></rect><text x="33.5" y="16">Domiciles</text><text><tspan x="2.5" y="37" style="text-decoration:underline">idDomicile</tspan><tspan x="2.5" y="53">addreseDomicile</tspan></text></g><g transform="translate(524,209)"><rect height="42" width="162" style="fill:white"></rect><rect height="21" width="162" style="fill:lightgrey"></rect><text x="9.75" y="16">Co_Proprietaire</text><text><tspan x="2.5" y="37">isCoProprietaire</tspan></text></g><g transform="translate(312,301)"><rect height="58" width="162" style="fill:white"></rect><rect height="21" width="162" style="fill:lightgrey"></rect><text x="24" y="16">Proprietaire</text><text><tspan x="2.5" y="37">isProprietaire</tspan><tspan x="2.5" y="53">nombreDepersonne</tspan></text></g><g transform="translate(750,409)"><rect height="58" width="86" style="fill:white"></rect><rect height="21" width="86" style="fill:lightgrey"></rect><text x="14.5" y="16">Pieces</text><text><tspan x="2.5" y="37" style="text-decoration:underline">idPiece</tspan><tspan x="2.5" y="53">nomPiece</tspan></text></g><g transform="translate(57,617)"><rect height="74" width="152" style="fill:white"></rect><rect height="21" width="152.5" style="fill:lightgrey"></rect><text x="28.75" y="16">Abonnement</text><text><tspan x="2.5" y="37" style="text-decoration:underline">idAbonnement</tspan><tspan x="2.5" y="53">typeAbonnement</tspan><tspan x="2.5" y="69">dureeAbonnement</tspan></text></g><g transform="translate(317,609)"><rect height="90" width="152" style="fill:white"></rect><rect height="21" width="152.5" style="fill:lightgrey"></rect><text x="52.5" y="16">Carte</text><text><tspan x="2.5" y="37" style="text-decoration:underline">idCarte</tspan><tspan x="2.5" y="53">mmyyCarte</tspan><tspan x="2.5" y="69">cvcCarte</tspan><tspan x="2.5" y="85">placeHNameCarte</tspan></text></g><g transform="translate(350,61)"><rect height="42" width="86.5" rx="20" ry="20" style="fill:lightgrey"></rect><line x1="0" x2="86.5" y1="21" y2="21"></line><text x="10" y="17">ObjetDe</text><text></text></g><g transform="translate(750,61)"><rect height="42" width="86.5" rx="20" ry="20" style="fill:lightgrey"></rect><line x1="0" x2="86.5" y1="21" y2="21"></line><text x="10" y="17">Habiter</text><text></text></g><g transform="translate(76,209)"><rect height="42" width="115" rx="20" ry="20" style="fill:lightgrey"></rect><line x1="0" x2="115" y1="21" y2="21"></line><text x="10" y="17">AjoutObjet</text><text></text></g><g transform="translate(736,209)"><rect height="42" width="115" rx="20" ry="20" style="fill:lightgrey"></rect><line x1="0" x2="115" y1="21" y2="21"></line><text x="10" y="17">CreePieces</text><text></text></g><g transform="translate(919,309)"><rect height="42" width="115" rx="20" ry="20" style="fill:lightgrey"></rect><line x1="0" x2="115" y1="21" y2="21"></line><text x="10" y="17">Appartient</text><text></text></g><g transform="translate(364,417)"><rect height="42" width="58" rx="20" ry="20" style="fill:lightgrey"></rect><line x1="0" x2="58" y1="21" y2="21"></line><text x="10" y="17">Dans</text><text></text></g><g transform="translate(90,517)"><rect height="42" width="86.5" rx="20" ry="20" style="fill:lightgrey"></rect><line x1="0" x2="86.5" y1="21" y2="21"></line><text x="10" y="17">Abonner</text><text></text></g><g transform="translate(562,517)"><rect height="42" width="86.5" rx="20" ry="20" style="fill:lightgrey"></rect><line x1="0" x2="86.5" y1="21" y2="21"></line><text x="10" y="17">Cartede</text><text></text></g><g><line x1="350" x2="262" y1="82" y2="82"></line><text x="267" y="103">1,N</text></g><g><line x1="436" x2="533" y1="82" y2="82"></line><text x="497" y="103">1,N</text></g><g><line x1="750" x2="676" y1="82" y2="82"></line><text x="681" y="103">1,N</text></g><g><line x1="836" x2="901" y1="82" y2="82"></line><text x="865" y="103">0,N</text></g><g><line x1="191" x2="524" y1="230" y2="230"></line><text x="488" y="251">1,1</text></g><g><line x1="133" x2="133" y1="209" y2="119"></line><text x="138" y="140">1,N</text></g><g><line x1="736" x2="686" y1="230" y2="230"></line><text x="691" y="251">0,N</text></g><g><line x1="819" x2="941" y1="209" y2="111"></line><text x="905" y="132">0,N</text></g><g><line x1="793" x2="793" y1="251" y2="409"></line><text x="798" y="402">1,N</text></g><g><line x1="919" x2="474" y1="330" y2="330"></line><text x="479" y="351">1,N</text></g><g><line x1="976" x2="977" y1="309" y2="111"></line><text x="982" y="132">0,N</text></g><g><line x1="378" x2="160" y1="417" y2="119"></line><text x="165" y="140">0,N</text></g><g><line x1="422" x2="750" y1="438" y2="438"></line><text x="714" y="459">1,N</text></g><g><line x1="159" x2="357" y1="517" y2="359"></line><text x="321" y="380">1,1</text></g><g><line x1="133" x2="133" y1="559" y2="617"></line><text x="138" y="610">0,N</text></g><g><line x1="176" x2="317" y1="557" y2="620"></line><text x="281" y="613">1,N</text></g><g><line x1="567" x2="469" y1="559" y2="612"></line><text x="474" y="605">1,1</text></g><g><line x1="584" x2="423" y1="517" y2="359"></line><text x="428" y="380">1,N</text></g><g><line x1="604" x2="605" y1="183" y2="209"></line><text x="610" y="202"></text></g><g><line x1="604" x2="418" y1="183" y2="301"></line><text x="423" y="294"></text></g></svg>